<mxfile host="app.diagrams.net" modified="2023-01-30T10:40:11.308Z" agent="5.0 (Macintosh; Intel Mac OS X 10_15_2) AppleWebKit/537.36 (KHTML, like Gecko) Chrome/109.0.0.0 Safari/537.36" etag="sbdL007jAQ_MgU2UbO4U" version="20.8.13" type="github">
  <diagram name="第 1 页" id="N_1-ptxAEDVDrPPMZSto">
    <mxGraphModel dx="1908" dy="1024" grid="1" gridSize="10" guides="1" tooltips="1" connect="1" arrows="1" fold="1" page="1" pageScale="1" pageWidth="827" pageHeight="1169" math="0" shadow="0">
      <root>
        <mxCell id="0" />
        <mxCell id="1" parent="0" />
        <mxCell id="ybDDXBpEyTeO50SM8f8p-1" value="" style="shape=note;whiteSpace=wrap;html=1;backgroundOutline=1;darkOpacity=0.05;strokeWidth=2;" vertex="1" parent="1">
          <mxGeometry x="100" y="170" width="110" height="150" as="geometry" />
        </mxCell>
        <mxCell id="ybDDXBpEyTeO50SM8f8p-2" value="" style="endArrow=none;html=1;rounded=0;strokeWidth=2;dashed=1;" edge="1" parent="1">
          <mxGeometry width="50" height="50" relative="1" as="geometry">
            <mxPoint x="40" y="140" as="sourcePoint" />
            <mxPoint x="290" y="140" as="targetPoint" />
          </mxGeometry>
        </mxCell>
        <mxCell id="ybDDXBpEyTeO50SM8f8p-4" value="&lt;span style=&quot;font-size: 16px;&quot;&gt;&lt;b&gt;Enable ScrollY&lt;/b&gt;&lt;/span&gt;" style="text;html=1;strokeColor=#6c8ebf;fillColor=#dae8fc;align=center;verticalAlign=middle;whiteSpace=wrap;rounded=0;" vertex="1" parent="1">
          <mxGeometry x="90" y="100" width="120" height="30" as="geometry" />
        </mxCell>
        <mxCell id="ybDDXBpEyTeO50SM8f8p-5" value="" style="shape=note;whiteSpace=wrap;html=1;backgroundOutline=1;darkOpacity=0.05;strokeWidth=2;" vertex="1" parent="1">
          <mxGeometry x="370" y="140" width="110" height="150" as="geometry" />
        </mxCell>
        <mxCell id="ybDDXBpEyTeO50SM8f8p-6" value="" style="endArrow=none;html=1;rounded=0;strokeWidth=2;dashed=1;" edge="1" parent="1">
          <mxGeometry width="50" height="50" relative="1" as="geometry">
            <mxPoint x="310" y="140" as="sourcePoint" />
            <mxPoint x="560" y="140" as="targetPoint" />
          </mxGeometry>
        </mxCell>
        <mxCell id="ybDDXBpEyTeO50SM8f8p-7" value="&lt;span style=&quot;font-size: 16px;&quot;&gt;&lt;b&gt;Disable ScrollY&lt;/b&gt;&lt;/span&gt;" style="text;html=1;strokeColor=#b85450;fillColor=#f8cecc;align=center;verticalAlign=middle;whiteSpace=wrap;rounded=0;" vertex="1" parent="1">
          <mxGeometry x="360" y="100" width="120" height="30" as="geometry" />
        </mxCell>
        <mxCell id="ybDDXBpEyTeO50SM8f8p-8" value="" style="endArrow=classic;html=1;rounded=0;strokeWidth=2;" edge="1" parent="1">
          <mxGeometry width="50" height="50" relative="1" as="geometry">
            <mxPoint x="250" y="210" as="sourcePoint" />
            <mxPoint x="250" y="160" as="targetPoint" />
          </mxGeometry>
        </mxCell>
        <mxCell id="ybDDXBpEyTeO50SM8f8p-9" value="" style="shape=note;whiteSpace=wrap;html=1;backgroundOutline=1;darkOpacity=0.05;strokeWidth=2;" vertex="1" parent="1">
          <mxGeometry x="650" y="170" width="110" height="150" as="geometry" />
        </mxCell>
        <mxCell id="ybDDXBpEyTeO50SM8f8p-10" value="" style="endArrow=none;html=1;rounded=0;strokeWidth=2;dashed=1;" edge="1" parent="1">
          <mxGeometry width="50" height="50" relative="1" as="geometry">
            <mxPoint x="590" y="140" as="sourcePoint" />
            <mxPoint x="840" y="140" as="targetPoint" />
          </mxGeometry>
        </mxCell>
        <mxCell id="ybDDXBpEyTeO50SM8f8p-11" value="&lt;span style=&quot;font-size: 16px;&quot;&gt;&lt;b&gt;Enable ScrollY&lt;/b&gt;&lt;/span&gt;" style="text;html=1;strokeColor=#6c8ebf;fillColor=#dae8fc;align=center;verticalAlign=middle;whiteSpace=wrap;rounded=0;" vertex="1" parent="1">
          <mxGeometry x="640" y="100" width="120" height="30" as="geometry" />
        </mxCell>
        <mxCell id="ybDDXBpEyTeO50SM8f8p-12" value="" style="endArrow=classic;html=1;rounded=0;strokeWidth=2;" edge="1" parent="1">
          <mxGeometry width="50" height="50" relative="1" as="geometry">
            <mxPoint x="800" y="160" as="sourcePoint" />
            <mxPoint x="800" y="210" as="targetPoint" />
          </mxGeometry>
        </mxCell>
        <mxCell id="ybDDXBpEyTeO50SM8f8p-35" value="" style="shape=note;whiteSpace=wrap;html=1;backgroundOutline=1;darkOpacity=0.05;strokeWidth=2;" vertex="1" parent="1">
          <mxGeometry x="940" y="170" width="110" height="150" as="geometry" />
        </mxCell>
        <mxCell id="ybDDXBpEyTeO50SM8f8p-36" value="" style="endArrow=none;html=1;rounded=0;strokeWidth=2;dashed=1;" edge="1" parent="1">
          <mxGeometry width="50" height="50" relative="1" as="geometry">
            <mxPoint x="880" y="350" as="sourcePoint" />
            <mxPoint x="1129.9999999999998" y="350" as="targetPoint" />
          </mxGeometry>
        </mxCell>
        <mxCell id="ybDDXBpEyTeO50SM8f8p-37" value="&lt;span style=&quot;font-size: 16px;&quot;&gt;&lt;b&gt;Enable ScrollY&lt;/b&gt;&lt;/span&gt;" style="text;html=1;strokeColor=#6c8ebf;fillColor=#dae8fc;align=center;verticalAlign=middle;whiteSpace=wrap;rounded=0;" vertex="1" parent="1">
          <mxGeometry x="930" y="100" width="120" height="30" as="geometry" />
        </mxCell>
        <mxCell id="ybDDXBpEyTeO50SM8f8p-38" value="" style="shape=note;whiteSpace=wrap;html=1;backgroundOutline=1;darkOpacity=0.05;strokeWidth=2;" vertex="1" parent="1">
          <mxGeometry x="1205" y="200" width="110" height="150" as="geometry" />
        </mxCell>
        <mxCell id="ybDDXBpEyTeO50SM8f8p-39" value="" style="endArrow=none;html=1;rounded=0;strokeWidth=2;dashed=1;" edge="1" parent="1">
          <mxGeometry width="50" height="50" relative="1" as="geometry">
            <mxPoint x="1149.9999999999998" y="350" as="sourcePoint" />
            <mxPoint x="1400" y="350" as="targetPoint" />
          </mxGeometry>
        </mxCell>
        <mxCell id="ybDDXBpEyTeO50SM8f8p-40" value="&lt;span style=&quot;font-size: 16px;&quot;&gt;&lt;b&gt;Disable ScrollY&lt;/b&gt;&lt;/span&gt;" style="text;html=1;strokeColor=#b85450;fillColor=#f8cecc;align=center;verticalAlign=middle;whiteSpace=wrap;rounded=0;" vertex="1" parent="1">
          <mxGeometry x="1200" y="100" width="120" height="30" as="geometry" />
        </mxCell>
        <mxCell id="ybDDXBpEyTeO50SM8f8p-41" value="" style="endArrow=classic;html=1;rounded=0;strokeWidth=2;" edge="1" parent="1">
          <mxGeometry width="50" height="50" relative="1" as="geometry">
            <mxPoint x="1089.9999999999998" y="270" as="sourcePoint" />
            <mxPoint x="1090" y="330" as="targetPoint" />
          </mxGeometry>
        </mxCell>
        <mxCell id="ybDDXBpEyTeO50SM8f8p-42" value="" style="shape=note;whiteSpace=wrap;html=1;backgroundOutline=1;darkOpacity=0.05;strokeWidth=2;" vertex="1" parent="1">
          <mxGeometry x="1490" y="170" width="110" height="150" as="geometry" />
        </mxCell>
        <mxCell id="ybDDXBpEyTeO50SM8f8p-43" value="" style="endArrow=none;html=1;rounded=0;strokeWidth=2;dashed=1;" edge="1" parent="1">
          <mxGeometry width="50" height="50" relative="1" as="geometry">
            <mxPoint x="1430" y="350" as="sourcePoint" />
            <mxPoint x="1680" y="350" as="targetPoint" />
          </mxGeometry>
        </mxCell>
        <mxCell id="ybDDXBpEyTeO50SM8f8p-44" value="&lt;span style=&quot;font-size: 16px;&quot;&gt;&lt;b&gt;Enable ScrollY&lt;/b&gt;&lt;/span&gt;" style="text;html=1;strokeColor=#6c8ebf;fillColor=#dae8fc;align=center;verticalAlign=middle;whiteSpace=wrap;rounded=0;" vertex="1" parent="1">
          <mxGeometry x="1480" y="100" width="120" height="30" as="geometry" />
        </mxCell>
        <mxCell id="ybDDXBpEyTeO50SM8f8p-45" value="" style="endArrow=classic;html=1;rounded=0;strokeWidth=2;" edge="1" parent="1">
          <mxGeometry width="50" height="50" relative="1" as="geometry">
            <mxPoint x="1640" y="320" as="sourcePoint" />
            <mxPoint x="1640" y="270" as="targetPoint" />
          </mxGeometry>
        </mxCell>
        <mxCell id="ybDDXBpEyTeO50SM8f8p-46" value="@bindscrolltoupper" style="text;html=1;strokeColor=none;fillColor=none;align=center;verticalAlign=middle;whiteSpace=wrap;rounded=0;" vertex="1" parent="1">
          <mxGeometry x="395" y="60" width="60" height="30" as="geometry" />
        </mxCell>
        <mxCell id="ybDDXBpEyTeO50SM8f8p-47" value="@bindscrolltolower" style="text;html=1;strokeColor=none;fillColor=none;align=center;verticalAlign=middle;whiteSpace=wrap;rounded=0;" vertex="1" parent="1">
          <mxGeometry x="1230" y="60" width="60" height="30" as="geometry" />
        </mxCell>
      </root>
    </mxGraphModel>
  </diagram>
</mxfile>
